<?xml version="1.0" encoding="UTF-8" standalone="no"?>
<!DOCTYPE svg PUBLIC "-//W3C//DTD SVG 1.1//EN" "http://www.w3.org/Graphics/SVG/1.1/DTD/svg11.dtd">
<svg width="100%" height="100%" viewBox="0 0 2113 422" version="1.1" xmlns="http://www.w3.org/2000/svg" xmlns:xlink="http://www.w3.org/1999/xlink" xml:space="preserve" xmlns:serif="http://www.serif.com/" style="fill-rule:evenodd;clip-rule:evenodd;stroke-linejoin:round;stroke-miterlimit:2;">
    <g transform="matrix(1,0,0,1,-1104.123234,-635.544631)">
        <g id="Paul-Wang-for-Ligh-BG" serif:id="Paul Wang for Ligh BG" transform="matrix(1,0,0,1,0,-404.192417)">
            <g transform="matrix(0.623708,0,0,0.623708,1089.256328,481.224698)">
                <g transform="matrix(0.702225,0,0,0.702225,-233.779296,359.898416)">
                    <path d="M1394.7,1488.204C1379.559,1490.721 1365.677,1491.979 1353.052,1491.979C1274.124,1491.979 1208.35,1466.021 1155.731,1414.103C1103.112,1362.186 1076.802,1297.113 1076.802,1218.886C1076.802,1142.764 1103.375,1078.218 1156.52,1025.248C1209.665,972.278 1274.299,945.793 1350.422,945.793C1365.769,945.793 1380.528,946.604 1394.7,948.226L1394.7,1159.344C1383.176,1150.98 1369.293,1146.798 1353.052,1146.798C1332.356,1146.798 1314.465,1154.34 1299.381,1169.424C1284.297,1184.508 1276.755,1202.399 1276.755,1223.096C1276.755,1244.845 1283.595,1262.736 1297.276,1276.767C1310.957,1290.799 1328.322,1297.815 1349.369,1297.815C1365.57,1297.815 1380.681,1293.764 1394.7,1285.661C1395.555,1285.167 1396.406,1284.658 1397.253,1284.134L1397.253,1487.77C1396.398,1487.919 1395.547,1488.063 1394.7,1488.204ZM1428.909,953.973C1477.696,964.972 1518.447,987.064 1551.163,1020.249C1600.099,1069.886 1624.567,1137.677 1624.567,1223.622L1624.567,1480.929L1428.909,1480.929L1428.909,953.973Z" style="fill:rgb(18,20,22);fill-rule:nonzero;"/>
                </g>
                <g transform="matrix(0.702225,0,0,0.702225,-233.779296,359.898416)">
                    <path d="M1936.391,1496.506C1878.334,1488.891 1830.345,1462.476 1792.422,1417.26C1756.992,1374.814 1739.277,1315.881 1739.277,1240.46L1739.277,963.684L1936.072,963.684L1936.072,1259.929C1936.072,1262.683 1936.179,1265.31 1936.391,1267.81L1936.391,1496.506ZM2010.217,1263.124C2010.249,1262.079 2010.265,1261.014 2010.265,1259.929L2010.265,963.684L2207.061,963.684L2207.061,1256.246C2207.061,1324.3 2184.435,1381.742 2139.182,1428.573C2102.777,1466.248 2059.789,1488.768 2010.217,1496.135L2010.217,1263.124Z" style="fill:rgb(18,20,22);fill-rule:nonzero;"/>
                </g>
                <g transform="matrix(0.702225,0,0,0.702225,-233.779296,359.898416)">
                    <rect x="2321.77" y="762.678" width="196.795" height="718.251" style="fill:rgb(18,20,22);fill-rule:nonzero;"/>
                </g>
                <g transform="matrix(0.702225,0,0,0.702225,-233.779296,359.898416)">
                    <path d="M3091.391,1489.906C3056.122,1478.765 3023.388,1457.181 2993.19,1425.153C2960.708,1456.301 2928.084,1477.571 2895.319,1488.964L2895.319,963.684L3091.391,963.684L3091.391,1489.906ZM3156.948,963.684L3353.631,963.684L3353.631,1286.765C3353.631,1345.698 3333.811,1395.774 3294.172,1436.992C3256.169,1476.509 3210.427,1497.083 3156.948,1498.715L3156.948,963.684ZM2830.597,1498.703C2768.658,1496.852 2718.67,1473.037 2680.633,1427.258C2649.412,1389.723 2633.802,1335.525 2633.802,1264.665L2633.802,963.684L2830.597,963.684L2830.597,1498.703Z" style="fill:rgb(18,20,22);fill-rule:nonzero;"/>
                </g>
                <g transform="matrix(0.702225,0,0,0.702225,-233.779296,359.898416)">
                    <path d="M3760.343,1487.776C3744.22,1490.578 3729.498,1491.979 3716.177,1491.979C3637.248,1491.979 3571.474,1466.021 3518.855,1414.103C3466.236,1362.186 3439.927,1297.113 3439.927,1218.886C3439.927,1142.764 3466.499,1078.218 3519.645,1025.248C3572.79,972.278 3637.424,945.793 3713.546,945.793C3729.804,945.793 3745.403,946.703 3760.343,948.524L3760.343,1161.269C3748.341,1151.622 3733.619,1146.798 3716.177,1146.798C3695.48,1146.798 3677.59,1154.34 3662.506,1169.424C3647.421,1184.508 3639.879,1202.399 3639.879,1223.096C3639.879,1244.845 3646.72,1262.736 3660.401,1276.767C3674.082,1290.799 3691.446,1297.815 3712.494,1297.815C3729.669,1297.815 3745.619,1293.262 3760.343,1284.155C3760.354,1284.148 3760.366,1284.141 3760.377,1284.134L3760.377,1487.77C3760.366,1487.772 3760.354,1487.774 3760.343,1487.776ZM3789.735,953.464C3839.542,964.282 3881.059,986.544 3914.288,1020.249C3963.224,1069.886 3987.692,1137.677 3987.692,1223.622L3987.692,1480.929L3790.896,1480.929L3790.896,1237.829C3790.896,1231.193 3790.509,1224.879 3789.735,1218.886L3789.735,953.464Z" style="fill:rgb(18,20,22);fill-rule:nonzero;"/>
                </g>
                <g transform="matrix(0.702225,0,0,0.702225,-233.779296,359.898416)">
                    <path d="M4298.231,1480.929L4102.401,1480.929L4102.401,1188.367C4102.401,1119.962 4125.028,1062.344 4170.28,1015.513C4206.436,978.096 4249.087,955.627 4298.231,948.105L4298.231,1480.929ZM4373.39,947.603C4431.563,955.248 4479.446,981.655 4517.04,1026.826C4552.47,1069.273 4570.185,1128.381 4570.185,1204.153L4570.185,1480.929L4373.39,1480.929L4373.39,947.603Z" style="fill:rgb(18,20,22);fill-rule:nonzero;"/>
                </g>
                <g transform="matrix(0.702225,0,0,0.702225,-233.779296,359.898416)">
                    <path d="M4964.995,1141.83C4954.944,1135.32 4942.26,1132.065 4926.943,1132.065C4908,1132.065 4891.425,1139.344 4877.218,1153.902C4863.011,1168.46 4855.907,1185.21 4855.907,1204.153C4855.907,1224.148 4862.66,1240.811 4876.165,1254.141C4889.671,1267.471 4906.421,1274.136 4926.417,1274.136C4939.747,1274.136 4952.551,1270.979 4964.829,1264.665L4964.829,1445.148C4936.414,1455.672 4909.228,1460.934 4883.269,1460.934C4819.775,1460.934 4766.016,1436.905 4721.991,1388.846C4677.967,1340.787 4655.954,1282.029 4655.954,1212.572C4655.954,1137.502 4682.439,1074.184 4735.409,1022.617C4788.379,971.05 4853.452,945.267 4930.626,945.267C4942.223,945.267 4953.679,945.925 4964.995,947.241L4964.995,1141.83ZM4993.769,952.072C5012.407,956.184 5030.648,962.159 5048.493,969.998C5086.028,986.485 5115.495,1008.585 5136.893,1036.298C5172.674,1082.252 5190.565,1148.903 5190.565,1236.251L5190.565,1408.841C5190.565,1502.503 5163.992,1578.538 5110.847,1636.945C5057.701,1695.352 4988.507,1724.556 4903.264,1724.556C4877.306,1724.556 4844.506,1718.066 4804.867,1705.087L4804.867,1526.182C4830.475,1540.214 4856.433,1547.23 4882.743,1547.23C4918.173,1547.23 4945.535,1535.566 4964.829,1512.238C4984.122,1488.91 4993.769,1455.497 4993.769,1411.998L4993.769,952.072Z" style="fill:rgb(18,20,22);fill-rule:nonzero;"/>
                </g>
            </g>
            <g id="PW-Logo-original" serif:id="PW Logo-original" transform="matrix(0.325227,0,0,0.325227,472.578867,865.278177)">
                <g transform="matrix(1.386372,0,0,1.386372,-624.139903,-835.231743)">
                    <path d="M2097.887,1667.122L2097.887,1877.78L1850.871,1877.78L1850.871,1446.82C1850.871,1402.203 1856.245,1365.614 1866.994,1337.052C1877.742,1308.49 1896.096,1281.872 1922.055,1257.198C1951.259,1229.819 1987.764,1208.187 2031.57,1192.3C2053.325,1184.41 2075.431,1178.48 2097.887,1174.508L2097.887,1237.468C2001.728,1261.61 1930.439,1348.693 1930.439,1452.295C1930.439,1555.897 2001.728,1642.98 2097.887,1667.122Z" style="fill:rgb(18,20,22);fill-rule:nonzero;"/>
                </g>
                <g transform="matrix(1.072625,0,0,1.072625,-408.533353,-332.424616)">
                    <path d="M2562.421,1122.63L2562.421,1042.162C2569.818,1041.716 2577.274,1041.49 2584.782,1041.49C2787.249,1041.49 2951.627,1205.868 2951.627,1408.335C2951.627,1610.802 2787.249,1775.18 2584.782,1775.18C2577.274,1775.18 2569.818,1774.953 2562.421,1774.508L2562.421,1694.039C2568.35,1694.407 2574.329,1694.593 2580.35,1694.593C2738.34,1694.593 2866.608,1566.325 2866.608,1408.335C2866.608,1250.345 2738.34,1122.077 2580.35,1122.077C2574.329,1122.077 2568.35,1122.263 2562.421,1122.63Z" style="fill:rgb(18,20,22);"/>
                </g>
                <g transform="matrix(1.185332,0,0,1.185332,-1311.006014,-756.050405)">
                    <circle cx="3096.364" cy="1631.813" r="259.039" style="fill:rgb(237,137,54);"/>
                </g>
                <g transform="matrix(1.024561,0,0,1.034653,-508.853806,-594.924197)">
                    <path d="M2719.403,1880.34C2717.255,1880.422 2715.067,1880.462 2712.838,1880.462C2681.867,1880.462 2658.134,1872.327 2641.639,1856.056C2625.143,1839.785 2616.895,1816.36 2616.895,1785.781L2616.895,1586.11L2719.403,1586.11L2719.403,1880.34ZM2747.933,1586.11L2850.441,1586.11L2850.441,1876.548C2829.439,1870.753 2812.439,1858.521 2799.44,1839.855C2787.826,1854.443 2775.37,1864.857 2762.072,1871.099C2757.697,1873.153 2752.984,1874.869 2747.933,1876.248L2747.933,1586.11ZM2879.224,1586.11L2981.732,1586.11L2981.732,1792.935C2981.732,1818.744 2972.39,1839.785 2953.706,1856.056C2935.023,1872.327 2910.869,1880.462 2881.244,1880.462C2880.568,1880.462 2879.894,1880.457 2879.224,1880.448L2879.224,1586.11Z" style="fill:rgb(244,244,249);fill-rule:nonzero;"/>
                </g>
            </g>
        </g>
    </g>
</svg>
