<?xml version="1.0" encoding="UTF-8" standalone="no"?>
<!DOCTYPE svg PUBLIC "-//W3C//DTD SVG 1.1//EN" "http://www.w3.org/Graphics/SVG/1.1/DTD/svg11.dtd">
<svg width="100%" height="100%" viewBox="0 0 603 603" version="1.1" xmlns="http://www.w3.org/2000/svg" xmlns:xlink="http://www.w3.org/1999/xlink" xml:space="preserve" xmlns:serif="http://www.serif.com/" style="fill-rule:evenodd;clip-rule:evenodd;stroke-linejoin:round;stroke-miterlimit:2;">
    <g transform="matrix(1,0,0,1,-1425.567518,-1695.692475)">
        <g id="PW-Logo-for-site-icon" serif:id="PW Logo-for site icon" transform="matrix(1,0,0,1,-695.819077,30.149482)">
            <g transform="matrix(0.736391,0,0,0.736391,443.213817,463.095226)">
                <circle cx="2687.866" cy="2041.844" r="408.949" style="fill:none;"/>
            </g>
            <g id="PW-Logo-original" serif:id="PW Logo-original" transform="matrix(0.500237,0,0,0.500237,1274.371603,1300.970506)">
                <g transform="matrix(1.386372,0,0,1.386372,-624.139903,-835.231743)">
                    <path d="M2097.887,1667.122L2097.887,1877.78L1850.871,1877.78L1850.871,1446.82C1850.871,1402.203 1856.245,1365.614 1866.994,1337.052C1877.742,1308.49 1896.096,1281.872 1922.055,1257.198C1951.259,1229.819 1987.764,1208.187 2031.57,1192.3C2053.325,1184.41 2075.431,1178.48 2097.887,1174.508L2097.887,1237.468C2001.728,1261.61 1930.439,1348.693 1930.439,1452.295C1930.439,1555.897 2001.728,1642.98 2097.887,1667.122Z" style="fill:rgb(18,20,22);fill-rule:nonzero;"/>
                </g>
                <g transform="matrix(1.072625,0,0,1.072625,-408.533353,-332.424616)">
                    <path d="M2562.421,1122.63L2562.421,1042.162C2569.818,1041.716 2577.274,1041.49 2584.782,1041.49C2787.249,1041.49 2951.627,1205.868 2951.627,1408.335C2951.627,1610.802 2787.249,1775.18 2584.782,1775.18C2577.274,1775.18 2569.818,1774.953 2562.421,1774.508L2562.421,1694.039C2568.35,1694.407 2574.329,1694.593 2580.35,1694.593C2738.34,1694.593 2866.608,1566.325 2866.608,1408.335C2866.608,1250.345 2738.34,1122.077 2580.35,1122.077C2574.329,1122.077 2568.35,1122.263 2562.421,1122.63Z" style="fill:rgb(18,20,22);"/>
                </g>
                <g transform="matrix(1.185332,0,0,1.185332,-1311.006014,-756.050405)">
                    <circle cx="3096.364" cy="1631.813" r="259.039" style="fill:rgb(237,137,54);"/>
                </g>
                <g transform="matrix(1.024561,0,0,1.034653,-508.853806,-594.924197)">
                    <path d="M2719.403,1880.34C2717.255,1880.422 2715.067,1880.462 2712.838,1880.462C2681.867,1880.462 2658.134,1872.327 2641.639,1856.056C2625.143,1839.785 2616.895,1816.36 2616.895,1785.781L2616.895,1586.11L2719.403,1586.11L2719.403,1880.34ZM2747.933,1586.11L2850.441,1586.11L2850.441,1876.548C2829.439,1870.753 2812.439,1858.521 2799.44,1839.855C2787.826,1854.443 2775.37,1864.857 2762.072,1871.099C2757.697,1873.153 2752.984,1874.869 2747.933,1876.248L2747.933,1586.11ZM2879.224,1586.11L2981.732,1586.11L2981.732,1792.935C2981.732,1818.744 2972.39,1839.785 2953.706,1856.056C2935.023,1872.327 2910.869,1880.462 2881.244,1880.462C2880.568,1880.462 2879.894,1880.457 2879.224,1880.448L2879.224,1586.11Z" style="fill:rgb(244,244,249);fill-rule:nonzero;"/>
                </g>
            </g>
        </g>
    </g>
</svg>
